<?xml version="1.0" encoding="UTF-8" standalone="no"?><!DOCTYPE svg PUBLIC "-//W3C//DTD SVG 1.1//EN" "http://www.w3.org/Graphics/SVG/1.1/DTD/svg11.dtd"><svg width="100%" height="100%" viewBox="0 0 512 512" version="1.1" xmlns="http://www.w3.org/2000/svg" xmlns:xlink="http://www.w3.org/1999/xlink" xml:space="preserve" xmlns:serif="http://www.serif.com/" style="fill-rule:evenodd;clip-rule:evenodd;stroke-linejoin:round;stroke-miterlimit:1.41421;"><path d="M213.371,30.906l85.57,0l0,14.399l30.903,0l0,-16.414c0.004,-15.93 -12.949,-28.891 -28.871,-28.891l-89.633,0c-15.922,0 -28.875,12.961 -28.875,28.891l0,16.414l30.906,0l0,-14.399Z" style="fill:#fff;fill-rule:nonzero;"/><path d="M401.211,167.75l-290.109,0c-7.95,0 -14.207,6.781 -13.567,14.707l24.254,299.906c1.352,16.742 15.316,29.637 32.094,29.637l204.543,0c16.777,0 30.742,-12.895 32.094,-29.641l24.253,-299.902c0.645,-7.926 -5.613,-14.707 -13.562,-14.707Zm-219.863,312.262c-0.325,0.019 -0.649,0.031 -0.969,0.031c-8.102,0 -14.902,-6.309 -15.406,-14.504l-15.2,-246.207c-0.523,-8.519 5.957,-15.852 14.473,-16.375c8.488,-0.516 15.852,5.949 16.375,14.473l15.195,246.207c0.528,8.519 -5.953,15.847 -14.468,16.375Zm90.433,-15.422c0,8.531 -6.918,15.449 -15.453,15.449c-8.535,0 -15.453,-6.918 -15.453,-15.449l0,-246.211c0,-8.535 6.918,-15.453 15.453,-15.453c8.531,0 15.453,6.918 15.453,15.453l0,246.211Zm90.758,-245.301l-14.512,246.207c-0.48,8.211 -7.293,14.543 -15.41,14.543c-0.304,0 -0.613,-0.008 -0.922,-0.023c-8.519,-0.504 -15.019,-7.817 -14.515,-16.336l14.508,-246.211c0.5,-8.52 7.789,-15.02 16.332,-14.516c8.519,0.5 15.019,7.817 14.519,16.336Z" style="fill:#fff;fill-rule:nonzero;"/><path d="M454.648,120.063l-10.148,-30.422c-2.676,-8.02 -10.184,-13.43 -18.641,-13.43l-339.41,0c-8.453,0 -15.965,5.41 -18.636,13.43l-10.149,30.421c-1.957,5.868 0.59,11.852 5.344,14.836c1.937,1.215 4.23,1.946 6.75,1.946l372.797,0c2.519,0 4.816,-0.731 6.75,-1.949c4.754,-2.985 7.3,-8.969 5.343,-14.833Z" style="fill:#fff;fill-rule:nonzero;"/></svg>