<?xml version="1.0" encoding="UTF-8" standalone="no"?><!DOCTYPE svg PUBLIC "-//W3C//DTD SVG 1.1//EN" "http://www.w3.org/Graphics/SVG/1.1/DTD/svg11.dtd"><svg width="100%" height="100%" viewBox="0 0 513 513" version="1.1" xmlns="http://www.w3.org/2000/svg" xmlns:xlink="http://www.w3.org/1999/xlink" xml:space="preserve" xmlns:serif="http://www.serif.com/" style="fill-rule:evenodd;clip-rule:evenodd;stroke-linejoin:round;stroke-miterlimit:1.41421;"><g><path d="M335.446,361.939l0,-61.789l-158.888,0l0,61.789l79.444,70.617l79.444,-70.617Z" style="fill:#e6af78;fill-rule:nonzero;"/><path d="M458.286,390.843l-109.229,-25.701c-1.65,-0.388 -3.167,-1.047 -4.587,-1.846l-88.469,51.607l-85.019,-54.103c-2.201,2.072 -4.933,3.612 -8.036,4.343l-109.229,25.701c-15.95,3.753 -27.222,17.985 -27.222,34.37l0,69.134c0,9.751 7.904,17.654 17.654,17.654l423.702,0c9.751,0 17.654,-7.904 17.654,-17.654l0,-69.134c0.002,-16.386 -11.27,-30.619 -27.219,-34.371Z" style="fill:#0d0d0d;fill-rule:nonzero;"/><path d="M176.558,300.15l0,65.193c100.078,36.057 158.888,-54.185 158.888,-54.185l0,-11.009l-158.888,0l0,0.001Z" style="fill:#d29b6e;fill-rule:nonzero;"/><path d="M141.249,97.127l7.692,169.228c0.718,15.809 8.47,30.47 21.13,39.965l36.498,27.374c9.168,6.875 20.318,10.593 31.778,10.593l35.309,0c11.46,0 22.61,-3.717 31.778,-10.593l36.498,-27.374c12.66,-9.496 20.412,-24.155 21.13,-39.965l7.692,-169.228c-0.001,0 -229.505,0 -229.505,0Z" style="fill:#f0c087;fill-rule:nonzero;"/><path d="M229.521,132.435c35.309,0 88.271,-8.827 100.833,-35.309l-189.105,0l7.692,169.228c0.718,15.809 8.47,30.469 21.131,39.965l36.498,27.374c9.168,6.875 20.318,10.593 31.778,10.593l17.654,0c-17.654,0 -52.963,-35.309 -52.963,-79.444c0,-21.586 0,-79.444 0,-105.926c0,-8.827 8.827,-26.481 26.482,-26.481Z" style="fill:#e6af78;fill-rule:nonzero;"/><g><path d="M91.3,454.714l-57.199,-51.382c-4.793,6.069 -7.603,13.706 -7.603,21.882l0,69.134c0,9.751 7.904,17.654 17.654,17.654l61.79,0l0,-24.454c-0.001,-12.527 -5.324,-24.464 -14.642,-32.834Z" style="fill:#0d0d0d;fill-rule:nonzero;"/><path d="M420.705,454.714l57.199,-51.382c4.793,6.069 7.603,13.706 7.603,21.882l0,69.134c0,9.751 -7.904,17.654 -17.654,17.654l-61.79,0l0,-24.454c0,-12.527 5.323,-24.464 14.642,-32.834Z" style="fill:#0d0d0d;fill-rule:nonzero;"/></g><rect x="184.596" y="423.653" width="142.813" height="88.349" style="fill:#eff2fa;"/><path d="M278.07,512.001l-44.136,0l5.517,-79.445l33.102,0l5.517,79.445Z" style="fill:#262626;fill-rule:nonzero;"/><path d="M278.07,414.902l-44.136,0l0,16.613c0,5.451 4.418,9.869 9.869,9.869l24.397,0c5.451,0 9.869,-4.418 9.869,-9.869l0,-16.613l0.001,0Z" style="fill:#1a1a1a;fill-rule:nonzero;"/><g><path d="M175.319,342.287l80.684,72.615c0,0 -22.596,11.407 -50.48,34.398c-5.752,4.742 -14.453,2.821 -17.538,-3.966l-37.907,-83.394l11.992,-17.987c2.984,-4.48 9.248,-5.266 13.249,-1.666Z" style="fill:#e4eaf6;fill-rule:nonzero;"/><path d="M336.686,342.287l-80.684,72.615c0,0 22.596,11.407 50.48,34.398c5.752,4.742 14.453,2.821 17.538,-3.966l37.907,-83.394l-11.992,-17.987c-2.985,-4.48 -9.249,-5.266 -13.249,-1.666Z" style="fill:#e4eaf6;fill-rule:nonzero;"/></g><path d="M309.516,38.647l8.275,58.48c37.775,7.555 43.219,66.837 44.003,83.769c0.142,3.073 1.123,6.04 2.79,8.625l14.413,22.358c0,0 -4.933,-36.964 17.654,-61.79c0.001,0 7.757,-146.751 -87.135,-111.442Z" style="fill:#785550;fill-rule:nonzero;"/><path d="M387.851,208.115l-9.965,39.861c-1.181,4.725 -5.425,8.038 -10.296,8.038c-5.353,0 -9.867,-3.985 -10.531,-9.296l-5.097,-40.77c-1.364,-10.913 7.144,-20.551 18.142,-20.551l0.008,0c11.896,0.001 20.624,11.178 17.739,22.718Z" style="fill:#f0c087;fill-rule:nonzero;"/><path d="M149.709,22.831l13.056,8.919c-59.031,43.584 -47.998,118.339 -47.998,118.339c17.654,17.654 17.654,61.79 17.654,61.79l17.654,-17.654c0,0 -6.813,-50.998 26.481,-70.617c30.895,-18.206 57.928,-8.827 85.513,-8.827c73.927,0 94.616,-27.861 91.03,-61.79c-1.856,-17.556 -28.698,-54.126 -97.098,-52.963c-27.604,0.469 -79.443,8.827 -106.292,22.803Z" style="fill:#694b4b;fill-rule:nonzero;"/><path d="M144.559,107.057c0,0 -9.379,-36.964 18.206,-75.306c-59.031,43.584 -47.998,118.339 -47.998,118.339c17.654,17.654 17.654,61.79 17.654,61.79l17.654,-17.654c0,0 -6.813,-50.998 26.481,-70.617c30.895,-18.206 57.928,-8.827 85.513,-8.827c12.023,0 22.5,-0.805 31.832,-2.185c-56.932,1.908 -90.493,-41.217 -149.342,-5.54Z" style="fill:#5a4146;fill-rule:nonzero;"/><path d="M124.153,208.115l9.965,39.861c1.181,4.725 5.425,8.038 10.296,8.038c5.353,0 9.867,-3.985 10.531,-9.296l5.097,-40.77c1.364,-10.913 -7.144,-20.551 -18.142,-20.551l-0.008,0c-11.896,0.001 -20.624,11.178 -17.739,22.718Z" style="fill:#e6af78;fill-rule:nonzero;"/></g></svg>